<svg width="71" height="150" viewBox="0 0 71 150" fill="none" xmlns="http://www.w3.org/2000/svg">
<path d="M32.8125 0V14.0625C34.3125 14.0625 35.8125 14.0625 37.5 14.0625V9.375H42.1875V4.6875H46.875V14.0625H51.5625V23.4375H56.25V28.125H60.9375V32.8125H65.625V46.875H60.9375V51.5625H56.25V56.25H46.875C46.875 54.8437 46.875 53.3437 46.875 51.5625H51.5625V37.5H46.875V32.8125H42.1875V28.125C40.5937 28.125 39.0938 28.125 37.5 28.125V32.8125H32.8125V28.125H28.125V23.4375H23.4375C23.4375 28.125 23.4375 32.8125 23.4375 37.5H18.75V51.5625H23.4375V56.25H14.0625V51.5625H9.375V46.875H4.6875V28.125H9.375V18.75H14.0625V14.0625H18.75V9.375H23.4375V4.6875H28.125V0H32.8125Z" fill="black"/>
<path d="M42.1875 145.312V149.719H41.9063H28.125V145.312H23.4375V89.0625H18.75V84.375H14.0625V79.6875H9.375V75H0C0 70.3125 0 65.625 0 60.9375H70.3125V75H60.9375V79.6875H56.25V75H51.5625C50.0625 75 48.5156 75 46.875 75V79.6875H42.1875V84.375H37.5C37.0781 94.7813 37.2656 142.734 37.5 145.312H42.1875ZM46.875 65.625H42.1875C42.1875 67.2188 42.1875 68.7187 42.1875 70.3125H46.875V65.625ZM56.25 65.625H51.5625V70.3125H56.25V65.625ZM65.625 65.625H60.9375V70.3125H65.625V65.625Z" fill="black"/>
<path d="M56.25 79.6875V84.375H51.5625V89.0625H46.875V145.312H42.1875V84.375H46.875V79.6875H56.25Z" fill="black"/>
<path d="M32.8125 42.1875V51.5625H28.125V42.1875H32.8125Z" fill="black"/>
<path d="M37.5 42.1875H42.1875V51.5625H37.5V42.1875Z" fill="black"/>
<path d="M32.8125 42.1875V37.5C34.2656 37.5 35.8125 37.5 37.5 37.5V42.1875H32.8125Z" fill="black"/>
</svg>
