<?xml version="1.0" standalone="no"?>
<!DOCTYPE svg PUBLIC "-//W3C//DTD SVG 20010904//EN"
 "http://www.w3.org/TR/2001/REC-SVG-20010904/DTD/svg10.dtd">
<svg version="1.0" xmlns="http://www.w3.org/2000/svg"
 width="1200.000000pt" height="1200.000000pt" viewBox="0 0 1200.000000 1200.000000"
 preserveAspectRatio="xMidYMid meet">
<metadata>
Created by potrace 1.11, written by Peter Selinger 2001-2013
</metadata>
<g transform="translate(0.000000,1200.000000) scale(0.100000,-0.100000)"
fill="#000000" stroke="none">
<path d="M5410 11816 c0 -138 -3 -185 -12 -188 -7 -2 -91 -4 -185 -3 -109 0
-174 -4 -174 -10 -1 -5 -3 -84 -4 -175 -1 -91 -3 -171 -4 -177 -1 -10 -45 -13
-186 -13 l-185 0 0 -188 0 -188 -185 1 c-102 0 -186 -2 -186 -5 -1 -3 -2 -86
-3 -185 l-1 -180 -188 -3 -187 -2 0 -375 0 -375 -188 0 -187 0 1 -742 c1 -409
2 -746 3 -750 0 -5 84 -8 186 -8 l185 0 0 -185 c0 -102 3 -186 8 -186 4 -1 88
-2 187 -3 l180 -1 0 -188 0 -187 375 0 375 0 0 183 c0 140 -2 183 -12 187 -7
3 -92 5 -188 5 l-175 0 -1 95 c-1 52 -1 99 0 104 1 4 1 182 1 395 -1 212 -1
393 -1 401 0 8 1 41 1 72 l-1 57 123 0 c68 0 128 1 133 2 6 1 14 1 19 0 31 -6
89 -2 95 7 3 6 6 258 6 561 0 359 3 552 10 554 5 2 89 3 185 3 l175 -1 3 -187
2 -188 188 -2 187 -3 1 -180 c1 -99 2 -182 3 -185 0 -3 84 -5 186 -5 l185 0 1
45 c1 25 0 49 -1 55 -1 5 -1 26 -1 45 0 19 1 81 1 138 0 70 3 101 10 97 6 -4
89 -6 185 -5 136 1 175 -2 176 -12 1 -7 2 -92 3 -188 l1 -175 185 0 185 0 3
-187 2 -188 188 -2 187 -3 1 -550 c0 -302 -3 -555 -7 -560 -5 -7 -75 -10 -188
-10 l-181 1 0 -188 0 -188 375 0 375 0 0 188 0 187 180 0 c99 -1 184 2 188 5
4 3 7 86 7 185 l0 180 188 3 187 2 0 560 c0 308 -3 561 -7 561 -5 1 -89 2
-188 3 l-180 1 -1 175 c-1 96 -2 181 -3 188 -1 9 -45 12 -186 12 l-185 0 -2
188 -3 187 -175 1 c-96 1 -180 2 -185 3 -7 1 -10 131 -10 371 0 246 -3 370
-10 371 -5 1 -89 2 -185 3 l-175 1 -5 375 -5 375 -177 0 c-97 0 -180 -4 -185
-8 -4 -5 -9 -84 -9 -175 -1 -92 -2 -173 -3 -180 -1 -10 -41 -12 -182 -12 -99
1 -183 0 -185 -3 -7 -6 -7 -104 -1 -114 3 -5 2 -26 -3 -46 -4 -20 -4 -39 0
-42 4 -3 5 -20 1 -37 -7 -32 -5 -92 3 -115 7 -18 -7 -19 -199 -19 l-180 1 0
560 0 560 -187 3 -188 2 0 -184z"/>
<path d="M5815 9000 l-30 -5 0 -177 c0 -97 -4 -180 -8 -185 -5 -4 -84 -9 -175
-9 -92 -1 -173 -2 -180 -3 -10 -1 -12 -79 -10 -373 l3 -373 185 0 185 0 0 375
0 375 183 0 c101 0 186 4 189 8 7 12 6 144 -1 156 -4 5 -3 12 2 15 5 3 6 27 3
53 -4 26 -4 66 -1 89 8 57 5 62 -38 55 -20 -4 -48 -4 -62 -1 -14 4 -38 3 -55
0 -16 -4 -42 -3 -57 1 -16 4 -30 4 -33 -1 -3 -4 -20 -5 -37 -1 -18 4 -46 4
-63 1z"/>
<path d="M6165 8610 c-4 -13 -6 -131 -4 -205 1 -11 0 -40 -1 -65 -1 -25 -1
-85 -1 -135 1 -49 0 -101 -2 -115 -2 -14 0 -40 4 -58 4 -17 3 -35 -2 -38 -5
-3 -7 -10 -3 -15 3 -6 6 -31 6 -57 l-1 -47 182 0 c100 -1 184 3 187 6 3 4 5
173 5 376 l0 368 -183 0 c-156 0 -183 -2 -187 -15z"/>
<path d="M3160 6563 l0 -562 43 -1 c38 -1 106 0 132 1 6 0 52 -1 103 -2 51 -1
95 1 98 4 3 3 18 2 33 -3 16 -4 34 -4 41 0 7 4 25 4 40 0 15 -4 33 -4 40 0 7
4 25 4 40 0 15 -4 33 -4 40 0 7 4 26 4 41 0 16 -5 31 -5 33 -1 6 9 66 2 64 -8
0 -3 0 -87 1 -186 l1 -180 180 1 c99 0 184 -2 188 -5 4 -4 7 -87 7 -186 l0
-180 187 -3 188 -2 2 -188 3 -187 180 0 c99 1 182 -2 185 -6 3 -4 5 -1016 5
-2248 0 -1489 3 -2241 10 -2242 5 -1 84 -3 175 -4 91 -1 171 -3 178 -4 9 -1
12 -43 12 -174 l0 -174 560 0 c308 0 561 3 561 6 1 3 2 83 3 176 l1 171 -183
-1 c-110 0 -186 4 -190 9 -12 20 -16 695 -16 2491 -1 1438 5 2326 13 2373 1 1
85 1 189 0 l187 -3 0 -2425 c0 -1334 3 -2430 7 -2435 4 -7 74 -10 185 -10
l178 0 5 2250 5 2250 175 1 c96 1 180 2 185 3 7 1 10 66 10 184 l0 182 188 3
187 2 0 188 0 187 184 0 c157 0 185 2 188 15 2 8 4 93 3 187 l0 173 40 0 c22
0 47 0 55 1 8 0 101 0 205 0 105 -1 211 0 237 0 26 0 52 -2 58 -6 5 -3 10 -2
10 4 0 6 11 7 28 2 33 -9 104 -4 112 8 3 5 5 258 5 563 l0 553 -2813 0 -2812
0 0 -562z m3750 3 c0 -138 -3 -185 -12 -188 -7 -2 -92 -4 -188 -3 l-175 0 0
188 0 187 187 0 188 0 0 -184z m750 -4 l0 -187 -185 0 c-102 0 -186 2 -186 5
-1 3 -2 87 -3 188 l-1 182 187 0 188 0 0 -188z m748 1 l-3 -188 -175 -1 c-96
0 -180 1 -185 3 -6 2 -10 71 -9 186 1 100 2 183 3 185 0 1 84 2 186 2 l185 0
-2 -187z m-1386 -565 c97 5 157 4 167 -3 6 -3 11 -1 11 5 0 6 5 8 11 5 9 -6
42 -7 119 -4 8 0 24 0 35 -1 11 0 46 0 77 1 31 0 61 -2 67 -6 6 -3 11 -1 11 5
0 6 5 8 11 4 7 -4 38 -7 71 -6 l58 0 -2 -186 -3 -187 -370 0 -370 0 -3 187 -2
187 27 3 c16 2 29 1 30 -2 2 -3 27 -4 55 -2z m-112 -560 l0 -188 -188 0 -187
0 1 188 c1 103 2 187 3 187 0 1 84 1 186 1 l185 0 0 -188z"/>
</g>
</svg>
