<svg width="71" height="150" viewBox="0 0 71 150" fill="none" xmlns="http://www.w3.org/2000/svg">
<rect width="71" height="150" fill="white"/>
<path d="M33 0V14.0625C34.5 14.0625 36 14.0625 37.6875 14.0625V9.375H42.375V4.6875H47.0625V14.0625H51.75V23.4375H56.4375V28.125H61.125V32.8125H65.8125V46.875H61.125V51.5625H56.4375V56.25H47.0625C47.0625 54.8437 47.0625 53.3437 47.0625 51.5625H51.75V37.5H47.0625V32.8125H42.375V28.125C40.7812 28.125 39.2813 28.125 37.6875 28.125V32.8125H33V28.125H28.3125V23.4375H23.625C23.625 28.125 23.625 32.8125 23.625 37.5H18.9375V51.5625H23.625V56.25H14.25V51.5625H9.5625V46.875H4.875V28.125H9.5625V18.75H14.25V14.0625H18.9375V9.375H23.625V4.6875H28.3125V0H33Z" fill="black"/>
<path d="M42.375 145.312V149.719H42.0938H28.3125V145.312H23.625V89.0625H18.9375V84.375H14.25V79.6875H9.5625V75H0.1875C0.1875 70.3125 0.1875 65.625 0.1875 60.9375H70.5V75H61.125V79.6875H56.4375V75H51.75C50.25 75 48.7031 75 47.0625 75V79.6875H42.375V84.375H37.6875C37.2656 94.7813 37.4531 142.734 37.6875 145.312H42.375ZM47.0625 65.625H42.375C42.375 67.2188 42.375 68.7187 42.375 70.3125H47.0625V65.625ZM56.4375 65.625H51.75V70.3125H56.4375V65.625ZM65.8125 65.625H61.125V70.3125H65.8125V65.625Z" fill="black"/>
<path d="M56.4375 79.6875V84.375H51.75V89.0625H47.0625V145.312H42.375V84.375H47.0625V79.6875H56.4375Z" fill="black"/>
<path d="M33 42.1875V51.5625H28.3125V42.1875H33Z" fill="black"/>
<path d="M37.6875 42.1875H42.375V51.5625H37.6875V42.1875Z" fill="black"/>
<path d="M33 42.1875V37.5C34.4531 37.5 36 37.5 37.6875 37.5V42.1875H33Z" fill="black"/>
</svg>
